<svg width="31" height="16" viewBox="0 0 31 16" fill="none" xmlns="http://www.w3.org/2000/svg">
<path fill-rule="evenodd" clip-rule="evenodd" d="M31 8C31 7.76429 30.8834 7.53823 30.6757 7.37155C30.4681 7.20487 30.1865 7.11124 29.8929 7.11124L3.78152 7.11124L10.7494 1.51913C10.8524 1.4365 10.934 1.3384 10.9897 1.23043C11.0454 1.12247 11.0741 1.00675 11.0741 0.889887C11.0741 0.773025 11.0454 0.657308 10.9897 0.549342C10.934 0.441376 10.8524 0.343275 10.7494 0.260642C10.6465 0.178008 10.5243 0.11246 10.3898 0.0677387C10.2553 0.0230177 10.1112 0 9.96563 0C9.82006 0 9.67592 0.0230177 9.54144 0.0677387C9.40695 0.11246 9.28475 0.178008 9.18182 0.260642L0.325244 7.37075C0.222146 7.45331 0.14035 7.55139 0.0845388 7.65937C0.0287281 7.76734 0 7.8831 0 8C0 8.1169 0.0287281 8.23266 0.0845388 8.34063C0.14035 8.44861 0.222146 8.54669 0.325244 8.62924L9.18182 15.7394C9.28475 15.822 9.40695 15.8875 9.54144 15.9323C9.67592 15.977 9.82006 16 9.96563 16C10.1112 16 10.2553 15.977 10.3898 15.9323C10.5243 15.8875 10.6465 15.822 10.7494 15.7394C10.8524 15.6567 10.934 15.5586 10.9897 15.4507C11.0454 15.3427 11.0741 15.227 11.0741 15.1101C11.0741 14.9933 11.0454 14.8775 10.9897 14.7696C10.934 14.6616 10.8524 14.5635 10.7494 14.4809L3.78152 8.88876L29.8929 8.88876C30.1865 8.88876 30.4681 8.79513 30.6757 8.62845C30.8834 8.46178 31 8.23571 31 8Z" fill="#000000"/>
</svg>
