<svg width="31" height="16" viewBox="0 0 31 16" fill="none" xmlns="http://www.w3.org/2000/svg">
<path fill-rule="evenodd" clip-rule="evenodd" d="M-1.90735e-06 8C-1.90735e-06 7.76429 0.116636 7.53823 0.324251 7.37155C0.531868 7.20487 0.813457 7.11124 1.10707 7.11124L27.2185 7.11124L20.2506 1.51913C20.1476 1.4365 20.066 1.3384 20.0103 1.23043C19.9546 1.12247 19.9259 1.00675 19.9259 0.889887C19.9259 0.773025 19.9546 0.657308 20.0103 0.549342C20.066 0.441376 20.1476 0.343275 20.2506 0.260642C20.3535 0.178008 20.4757 0.11246 20.6102 0.0677387C20.7447 0.0230177 20.8888 0 21.0344 0C21.1799 0 21.3241 0.0230177 21.4586 0.0677387C21.5931 0.11246 21.7152 0.178008 21.8182 0.260642L30.6748 7.37075C30.7779 7.45331 30.8597 7.55139 30.9155 7.65937C30.9713 7.76734 31 7.8831 31 8C31 8.1169 30.9713 8.23266 30.9155 8.34063C30.8597 8.44861 30.7779 8.54669 30.6748 8.62924L21.8182 15.7394C21.7152 15.822 21.5931 15.8875 21.4586 15.9323C21.3241 15.977 21.1799 16 21.0344 16C20.8888 16 20.7447 15.977 20.6102 15.9323C20.4757 15.8875 20.3535 15.822 20.2506 15.7394C20.1476 15.6567 20.066 15.5586 20.0103 15.4507C19.9546 15.3427 19.9259 15.227 19.9259 15.1101C19.9259 14.9933 19.9546 14.8775 20.0103 14.7696C20.066 14.6616 20.1476 14.5635 20.2506 14.4809L27.2185 8.88876L1.10707 8.88876C0.813457 8.88876 0.531868 8.79513 0.324251 8.62845C0.116636 8.46178 -1.90735e-06 8.23571 -1.90735e-06 8Z" fill="#FFFFFF"/>
</svg>
