<svg width="32" height="32" viewBox="0 0 32 32" fill="none" xmlns="http://www.w3.org/2000/svg">
<g filter="url(#filter0_d_21279_758)">
<path d="M16 0C9.37321 0 4 5.37321 4 12C4 18.6268 9.37321 24 16 24C22.6268 24 28 18.6268 28 12C28 5.37321 22.6268 0 16 0ZM21.767 9.04554C21.775 9.17143 21.775 9.30268 21.775 9.43125C21.775 13.3634 18.7804 17.8929 13.308 17.8929C11.6205 17.8929 10.0563 17.4027 8.73839 16.5589C8.97946 16.5857 9.20982 16.5964 9.45625 16.5964C10.8491 16.5964 12.1295 16.125 13.15 15.3268C11.8429 15.3 10.7446 14.4429 10.3696 13.2643C10.8277 13.3313 11.2402 13.3313 11.7116 13.2107C11.0386 13.074 10.4336 12.7084 9.99951 12.1762C9.56542 11.644 9.32898 10.9779 9.33036 10.2911V10.2536C9.72411 10.4759 10.1875 10.6125 10.6723 10.6313C10.2648 10.3596 9.93051 9.99164 9.69923 9.5599C9.46794 9.12817 9.34676 8.64603 9.34643 8.15625C9.34643 7.60179 9.49107 7.09554 9.75089 6.65625C10.498 7.5759 11.4302 8.32806 12.487 8.86384C13.5437 9.39961 14.7014 9.70702 15.8848 9.76607C15.4643 7.74375 16.975 6.10714 18.7911 6.10714C19.6482 6.10714 20.4196 6.46607 20.9634 7.04464C21.6357 6.91875 22.2786 6.66696 22.8518 6.32946C22.6295 7.01786 22.1634 7.59911 21.5446 7.96607C22.1446 7.90179 22.7232 7.73571 23.2589 7.50268C22.8545 8.09732 22.3482 8.625 21.767 9.04554Z" fill="white"/>
</g>
<defs>
<filter id="filter0_d_21279_758" x="0" y="0" width="32" height="32" filterUnits="userSpaceOnUse" color-interpolation-filters="sRGB">
<feFlood flood-opacity="0" result="BackgroundImageFix"/>
<feColorMatrix in="SourceAlpha" type="matrix" values="0 0 0 0 0 0 0 0 0 0 0 0 0 0 0 0 0 0 127 0" result="hardAlpha"/>
<feOffset dy="4"/>
<feGaussianBlur stdDeviation="2"/>
<feComposite in2="hardAlpha" operator="out"/>
<feColorMatrix type="matrix" values="0 0 0 0 0 0 0 0 0 0 0 0 0 0 0 0 0 0 0.25 0"/>
<feBlend mode="normal" in2="BackgroundImageFix" result="effect1_dropShadow_21279_758"/>
<feBlend mode="normal" in="SourceGraphic" in2="effect1_dropShadow_21279_758" result="shape"/>
</filter>
</defs>
</svg>
